<svg id="Слой_1" data-name="Слой 1" xmlns="http://www.w3.org/2000/svg" viewBox="0 0 466.19 460.5"><defs><style>.cls-1{fill:#fefefe;}.cls-2{fill:#42464a;}.cls-3{fill:#dddddc;}.cls-4{fill:#f8d536;}.cls-5{fill:#6161aa;}.cls-6{fill:#654199;}.cls-7{fill:#663d96;}.cls-8{fill:#fdfdfd;}.cls-9{fill:#634497;}.cls-10{fill:#6257a5;}.cls-11{fill:#664198;}.cls-12{fill:#f3f3f4;}.cls-13{fill:#62529f;}.cls-14{fill:#633d91;}.cls-15{fill:#644a9d;}.cls-16{fill:#644ea0;}.cls-17{fill:#654097;}.cls-18{fill:#634598;}.cls-19{fill:#6057a0;}.cls-20{fill:#634ea0;}.cls-21{fill:#65479c;}.cls-22{fill:#605ba2;}.cls-23{fill:#605aa1;}.cls-24{fill:#55585c;}.cls-25{fill:#43474a;}.cls-26{fill:#505148;}.cls-27{fill:#545448;}.cls-28{fill:#4c4e49;}.cls-29{fill:#45494d;}.cls-30{fill:#44484c;}.cls-31{fill:#464a4e;}.cls-32{fill:#474b4f;}.cls-33{fill:#474a4e;}.cls-34{fill:#6256a4;}</style></defs><title>svg</title><path class="cls-1" d="M7.58,130.72c0-37.1,0-74.2-.08-111.3,0-2.83.57-3.39,3.39-3.39q229.7.13,459.4,0c2.82,0,3.39.57,3.39,3.39q-.13,226.86,0,453.72c0,2.82-.57,3.39-3.39,3.39q-229.7-.13-459.4,0c-2.82,0-3.42-.56-3.4-3.39.15-21.94.08-43.89.08-65.83,3-2.07,5.05-.06,7,1.77,4.35,4.1,8.61,8.31,12.69,12.67a12.6,12.6,0,0,0,10,4.09c23.28-.12,46.57-.07,69.85,0,2.49,0,5.06-.38,7.39,1,1.61,1.65,1.39,3.78,1.41,5.8.06,6.15,0,12.31,0,18.46,0,1.58,0,3.16,0,4.73.43,10.59,6.93,17.9,16.16,18.18s16.12-6.63,16.88-17.37c.56-7.87.06-15.78.22-23.66,0-2.29-.44-4.83,1.95-6.47,2.1-.92,4.33-.78,6.53-.78q73.31,0,146.63,0c2.35,0,4.75-.21,7,.91,3.13,3,2.82,6.82,2.36,10.59-.36,3-2.73,3.71-5.22,3.7-3.69,0-5,1.78-4.86,5.28.21,4-.32,8,.81,11.89,1.45-2.49.89-5.16,1-7.74.27-5.83,1.58-7.33,7.36-7.45,8.83-.18,17.67-.06,26.5-.06q29.58,0,59.16,0c8.24,0,9.24,1.07,9.37,9.26,0,2-.25,4,1.08,5.88.57-5.62,1.58-11.22-.2-16.82a4.67,4.67,0,0,0-2.51-1.22,8.08,8.08,0,0,1-5.12-12.09c1.53-2.37,4.11-2.07,6.43-2.08,12.46-.08,24.93,0,37.39,0,6.63,0,13.25.06,19.88,0,4.91-.06,5.28-.5,5.43-5.5,0-1.1,0-2.21,0-3.31q0-127.33.1-254.66c0-6-1.4-10.59-6-14.59a152.61,152.61,0,0,1-13-13.12,6.4,6.4,0,0,0-5.42-2.35c-2.37,0-4.73,0-7.1-.13-3.36-.25-5.18-2-5.4-5.39-.16-2.52-.07-5-.11-7.57-.09-5.45-.42-5.77-6-5.86-.79,0-1.58,0-2.37,0-54,0-108,.16-162-.11-12.85-.06-22,5.48-29.14,15.45a31.52,31.52,0,0,1-2.23,3.05c-1.37,1.5-2.7,1.36-4,0a8.83,8.83,0,0,1-1.18-1.48c-6.41-10.4-15.75-16.09-27.84-17.35a17.37,17.37,0,0,0-6.08-.63c-15,0-30,0-45,0-6.3,0-7.21-1.59-4.7-7.48a31.71,31.71,0,0,1,6.2-8.85c16.67-18.2,18-41.19,3.44-60.42C138.2,16.41,108,13,89.83,28.2c-21.86,18.29-23.41,47.28-3.6,68a30,30,0,0,1,6.35,8.76c2.2,5.15,1,7.08-4.49,7.14-9.94.11-19.88,0-29.81,0-9,0-18,0-27,0-1.78,0-3.92-.67-4.89,1.75-.69,4,0,8.11-.41,12.14-.4,4.34-1.79,6-6.14,6C15.75,132.11,11.43,133.28,7.58,130.72Z" transform="translate(-7.5 -16.03)"/><path class="cls-2" d="M196.67,111.25c16.83,1.72,22.9,5.61,32.92,21.18,1.71-2.59,3.2-5.28,5.09-7.63,7.27-9,16.76-13.46,28.37-13.45q84,0,168-.06c3.1,0,4.14.86,3.94,4-.25,3.93.06,7.89-.1,11.82-.11,2.63.73,3.72,3.48,3.56,3.46-.19,6.95.11,10.4-.11,2.41-.15,3,1,3.12,3a12.81,12.81,0,0,1,1.46,6.85q0,129.49,0,259c0,7.49-1,8.42-8.5,8.48-9.63.07-19.26.09-28.88,0-3.74,0-6,1.32-7.86,4.7-3.85,7.11-7.45,14.11-7,22.59.15,3.07.88,4.23,4,4,2-.15,4.08-.59,6,.49,0,6.3,0,12.61.15,18.91,0,1.88-.29,2.85-2.54,2.85s-2.54-1.2-2.42-3a9.08,9.08,0,0,0,0-1.42c-.34-4,1.79-9.25-1-11.76s-7.84-.74-11.9-.75q-40.2-.09-80.4,0c-6,0-6,0-6,6.19,0,2.68-.11,5.37,0,8,.12,2.1-.7,2.68-2.72,2.67s-2.31-.94-2.29-2.61c.06-5.52.08-11,0-16.55,0-2,.45-3,2.62-2.76,1.41.14,2.85-.09,4.25,0,2.57.25,3.88-.52,3.51-3.37s-.52-5.94-.76-8.91c-5.93-5.39-12-10.66-17.24-16.75a7.1,7.1,0,0,0-5.72-2.71q-16.07,0-32.13,0c-2.69,0-4.79,1.24-6.88,2.73-13.5,9.61-27.53,9.57-40.63-.23a11.83,11.83,0,0,0-7.41-2.52c-14.81,0-29.61,0-44.42,0-4.85,0-5,.45-5.28,5.58-.26,4.63,1.23,9.46-1.29,13.88-.09,9.76-.11,19.52-.28,29.28-.15,9.05-4.86,15.77-12.44,18.06-12,3.62-22.84-4.75-23.14-18-.22-9.76-.17-19.52-.24-29.29-2.53-3.91-1.24-8.28-1.4-12.45-.25-6.58-.35-6.87-7-6.88q-41.82,0-83.64,0a53.76,53.76,0,0,1-14.9-1.55V130.72c4.41,0,8.82-.24,13.21-.05,2.78.12,3.56-1,3.47-3.56-.14-3.93-.07-7.87,0-11.8,0-1.5-.44-3.24,1.47-4.1,21.12.25,42.24,0,63.36.12,4.74,0,5.06.46,4.12,5.2C91.07,118.38,88.44,118,86,118c-16.1.05-32.2,0-48.3,0-6.45,0-6.78.33-6.78,6.6q0,117.91,0,235.83c0,6.13.35,6.48,6.39,6.49q34.81,0,69.61,0c5.77,0,6.14-.45,6.22-6.21,0-2.68.07-5.37,0-8-.14-4.81-.62-5.37-5.6-5.4-14.68-.09-29.36,0-44,0-1.74,0-3.48.07-5.21-.08-2.41-.21-5-.41-5.11-3.66-.06-3.55,2.75-3.71,5.33-3.93,1.57-.13,3.16-.07,4.73-.07h40.25a33,33,0,0,0,3.79,0c1.75-.2,4.76.6,4.75-1.65,0-2.77-3.13-1.87-5-1.88-14.52-.11-29-.05-43.57-.06-1.74,0-3.48.07-5.21-.09-2.39-.22-5-.37-5.1-3.65-.07-3.58,2.76-3.7,5.31-3.93,1.57-.14,3.16-.07,4.73-.07q21.31,0,42.62,0c2,0,4.07.24,6.3-1-1.55-2.29-3.73-1.66-5.53-1.67-14.84-.08-29.68,0-44.51,0a30.74,30.74,0,0,1-5.67-.29c-1.89-.35-3.23-1.27-3.35-3.37a4.08,4.08,0,0,1,2.87-4.39,17.2,17.2,0,0,1,6.09-.62c14.68,0,29.36,0,44,0,2,0,4.11.54,6-1.21-1.61-1.92-3.76-1.39-5.66-1.4-11.52-.07-23,.07-34.57-.1-2.93,0-7.24.86-7.26-3.8s4.3-3.78,7.23-3.81c12-.16,24,0,36-.09,2.35,0,4.89.19,5.21-3.3.34-3.77-.75-5-5.45-5-14.21-.08-28.41,0-42.62,0a59.56,59.56,0,0,1-8-.22c-2-.28-3.67-1.08-3.81-3.45a4.13,4.13,0,0,1,3.32-4.53,21.24,21.24,0,0,1,6.11-.48c14.52,0,29,0,43.57,0,2,0,4,.28,6.16-1.16-1.86-2-4-1.47-5.86-1.48-15-.05-30,0-45,0a21.11,21.11,0,0,1-5.65-.46,3.24,3.24,0,0,1-2.65-3.42,3.28,3.28,0,0,1,2.7-3.4,21,21,0,0,1,5.65-.45c14.84,0,29.68,0,44.51,0,2,0,4.06.27,6.19-1.08-1.73-2.09-3.87-1.54-5.74-1.55-14.84-.06-29.68,0-44.51,0a28.28,28.28,0,0,1-5.66-.34,4.08,4.08,0,0,1-.08-8,26.78,26.78,0,0,1,5.66-.36c14.68,0,29.36,0,44,0,2,0,4.11.41,6.17-1-1.17-2.15-3.23-1.55-4.88-1.56-11.52-.09-23,0-34.57-.05a18.09,18.09,0,0,1-5.63-.54,3.25,3.25,0,0,1-2.44-3.58,3.17,3.17,0,0,1,2.45-3.1,18.73,18.73,0,0,1,5.64-.51c11.68,0,23.36,0,35,0,2.56,0,5.22.09,5.39-3.66.15-3.55-.84-4.61-5.35-4.64-14.68-.09-29.36,0-44,0-1.89,0-3.79.06-5.68-.11-2.48-.22-4.89-.71-4.87-3.93,0-2.94,2-4.07,4.61-4.44a39.21,39.21,0,0,1,5.67-.21c14.21,0,28.41,0,42.62,0,2,0,4.1.48,6.09-1.26-1.65-1.88-3.77-1.35-5.63-1.35-15-.05-30,0-45,0a20.88,20.88,0,0,1-5.64-.46,3.51,3.51,0,0,1,0-6.82,20.81,20.81,0,0,1,5.64-.46c14.84,0,29.68,0,44.51,0,2,0,4.1.47,6.13-1.16-1.56-2-3.71-1.45-5.56-1.45-14.68-.06-29.36,0-44,0a45.32,45.32,0,0,1-5.2-.17c-2.44-.28-4.27-1.25-4.32-4.05-.05-3.06,1.88-4.08,4.53-4.33,1.73-.16,3.47-.14,5.21-.14,14.52,0,29,0,43.57,0,1.92,0,4,.41,6-1.35-2-1.74-4.08-1.27-6-1.28-11.52-.06-23,.07-34.57-.09-2.93,0-7.2.77-7-4,.18-4.32,4.19-3.55,7-3.58,12-.15,24,0,36-.11,2.09,0,4.59.46,5.25-2.69.78-3.68-.59-5.51-4.77-5.57-11.52-.14-23,0-34.57-.06-4.42,0-8.84,0-13.26,0-5.63-.09-7.56-1.24-7.31-4.49.36-4.7,4.13-4.1,7.15-4.13,15.31-.12,30.62,0,45.93-.07,2,0,4.06.32,6.15-1.13-1.73-2-3.88-1.49-5.77-1.49-15-.06-30,0-45,0a21,21,0,0,1-5.65-.46,3.51,3.51,0,0,1,0-6.82,21.07,21.07,0,0,1,5.65-.45c14.84,0,29.68,0,44.51,0,2,0,4.06.31,6.23-1.11-1.76-2-3.89-1.51-5.77-1.52-14.68-.06-29.36,0-44,0a22.94,22.94,0,0,1-5.65-.39c-2.22-.56-3.64-1.87-3.64-4.3,0-2.62,1.75-3.48,4-3.79a37.84,37.84,0,0,1,5.2-.2c14.68,0,29.36,0,44,0,1.83,0,3.79.4,5.68-1.12-1.44-2.15-3.63-1.48-5.45-1.49-11.21-.08-22.41,0-33.62,0a26.33,26.33,0,0,1-5.19-.31c-1.89-.38-3.2-1.36-3.24-3.45s1.13-3.17,3-3.61a18.66,18.66,0,0,1,4.24-.36c12.31,0,24.62-.1,37.12.07-5.65-.76-10.86-2.28-14.75-6.44s-5-9.35-4.72-14.92c.22-3.74-.25-6.93-5-7.61a3.08,3.08,0,0,1-2.65-3.43c.15-2.07,1.62-3,3.45-3.33a25.47,25.47,0,0,1,6.6-.26c2.2.08,4.41.07,6.61.07,6,0,5.79-.25,6.35-6,1.21-12.39-2-23.66-7.45-34.57-2.55-5.06-4.48-10.42-6.78-15.61a17.81,17.81,0,0,1-1.84-8.23c.12-2.19.62-4.17,3.31-4.36a4,4,0,0,1,4.55,3.27c2,9,6.66,17,9.93,25.51a15.48,15.48,0,0,0,1.13,2.6c6.14,10,5.73,21,5.46,32.11-.06,2.6-.1,5.21,3.69,5.25,2.95,0,5-.8,4.94-4.18,0-.63.09.14,0-.47-2.83-17.79,5.23-32.86,12-48.25,1.78-4,3.71-8,4.34-12.46.3-2.14,1.47-3.46,3.79-3.38s3.72,1.48,4.12,3.77c.45,2.6-.31,5-1.33,7.33-3.88,9-7.39,18.11-11.63,26.91-4.38,9.08-2.48,18.56-2.72,27.92-.06,2.25,1.69,2.77,3.6,2.81,3,.06,6,0,9,0a33.14,33.14,0,0,1,7.1.12c2,.28,3.79,1,4,3.32s-1.45,3.63-3.42,3.78c-4.9.37-5.36,3.58-5.09,7.31.87,12.25-7.11,20.27-19.14,21.34,18.9,0,37.8,0,56.7,0a32.08,32.08,0,0,1,5.67.26c2.07.37,3.54,1.35,3.5,3.71s-1.65,3.21-3.69,3.53a36.71,36.71,0,0,1-5.67.23c-17.84,0-35.68,0-53.52,0-2.1,0-4.4-.57-6.52,1.3,1.73,1.81,3.85,1.3,5.74,1.31,18.31,0,36.62,0,54.94,0a22.25,22.25,0,0,1,6.12.48,4.08,4.08,0,0,1,0,7.75,23.3,23.3,0,0,1-6.12.45c-18,0-36,0-54,0-2.12,0-4.39-.51-6.7,1.27,1.93,1.83,4.17,1.34,6.18,1.34,18.15,0,36.31,0,54.46,0a23,23,0,0,1,6.12.45,3.28,3.28,0,0,1,2.7,3.4,3.25,3.25,0,0,1-2.67,3.42,23.25,23.25,0,0,1-6.12.46c-18,0-36,0-54,0-2.13,0-4.37-.36-6.69,1.09,1.78,2.05,3.91,1.53,5.78,1.53,12.79.06,25.57,0,38.36,0a20.34,20.34,0,0,1,5.64.47,4.08,4.08,0,0,1,0,7.75,20.8,20.8,0,0,1-5.64.46c-13.1,0-26.21,0-39.31.05-2.23,0-5-.55-5.59,2.88-.69,3.69.66,5.33,5,5.38,10.26.13,20.52,0,30.78,0h24.63c1.26,0,2.53-.07,3.79,0,2.61.25,6-.14,6,3.7.06,4.19-3.49,3.71-6.24,3.95-1.57.14-3.16,0-4.73,0q-25.81,0-51.62,0c-2.15,0-4.42-.44-6.71,1.08,1.67,2.17,4,1.52,5.93,1.53,18.15.06,36.31,0,54.46,0a25.8,25.8,0,0,1,6.13.4c2.19.53,3.08,2,3,4.19a3.59,3.59,0,0,1-3,3.7,26.56,26.56,0,0,1-6.13.4c-18,0-36,0-54,0-2.09,0-4.34-.41-6.62,1.24,2.19,1.89,4.45,1.37,6.5,1.38,18,.05,36,0,54,0a27.71,27.71,0,0,1,6.13.37,3.37,3.37,0,0,1,3,3.65c-.06,2.1-1.4,3-3.29,3.41a29.55,29.55,0,0,1-5.66.31c-18,0-36,0-54,0-2.11,0-4.37-.42-6.56,1.18,1.85,1.92,4,1.44,5.87,1.45,12.79.05,25.57,0,38.36,0a19.84,19.84,0,0,1,5.64.49,4.09,4.09,0,0,1-.1,7.75,21.51,21.51,0,0,1-5.65.44c-13.1,0-26.21,0-39.31.05-2.21,0-5-.6-5.58,2.87-.65,3.69.69,5.33,5,5.39,10.1.14,20.21,0,30.31.05h26.52a31.34,31.34,0,0,1,4.73.22c2.05.31,3.65,1.16,3.69,3.54s-1.4,3.35-3.49,3.71a33.18,33.18,0,0,1-5.67.27c-18,0-36,0-54,0-2,0-4.11-.43-6.24,1.05,1.62,2.18,3.93,1.55,5.88,1.56,18.31.07,36.62,0,54.94,0a24.94,24.94,0,0,1,5.66.37A3.69,3.69,0,0,1,192.4,272a3.61,3.61,0,0,1-3,3.75,24.63,24.63,0,0,1-6.12.43c-18,0-36,0-54,0-2.11,0-4.37-.41-6.67,1.17,2.07,2,4.34,1.44,6.37,1.45,18.15.06,36.31,0,54.46,0a27.07,27.07,0,0,1,5.66.33c1.93.41,3.11,1.49,3.09,3.57s-1.29,3.1-3.19,3.5a30.17,30.17,0,0,1-6.14.34c-17.84,0-35.68,0-53.52,0-2.12,0-4.42-.55-6.54,1.21,1.61,2,3.76,1.39,5.63,1.4,12.63.06,25.26,0,37.89,0a28.34,28.34,0,0,1,5.66.33,4.09,4.09,0,0,1,.14,8,26.35,26.35,0,0,1-5.66.36c-13.1,0-26.21-.05-39.31.06-2.1,0-4.58-.37-5.21,2.77-.75,3.73.55,5.43,4.81,5.48,10.58.13,21.15,0,31.73,0,8.68,0,17.37,0,26,0a17.31,17.31,0,0,1,5.16.51,3.17,3.17,0,0,1,2.45,3.1,3.24,3.24,0,0,1-2.43,3.59,20,20,0,0,1-6.11.54c-18.15,0-36.31,0-54.46,0-2.1,0-4.33-.36-6.6,1.25,2,1.84,4.1,1.37,6,1.37,18.15,0,36.31,0,54.46,0a34.93,34.93,0,0,1,5.67.26c2.36.39,3.67,1.67,3.65,4.14s-1.48,3.67-3.79,4a36.15,36.15,0,0,1-5.67.25c-17.84,0-35.68,0-53.52,0-2.13,0-4.38-.4-6.68,1.17,2,2.06,4.26,1.44,6.27,1.45,18.15.06,36.31,0,54.46,0a22.92,22.92,0,0,1,6.12.46,3.51,3.51,0,0,1-.08,6.82,23.31,23.31,0,0,1-6.12.45c-18.15,0-36.31,0-54.46.07-2.15,0-6-1-5.94,1.82s3.86,1.66,6,1.68c12.63.12,25.26,0,37.89.07a20.76,20.76,0,0,1,5.64.46,3.25,3.25,0,0,1,2.64,3.44,3.28,3.28,0,0,1-2.72,3.38,21.21,21.21,0,0,1-5.65.45c-12.94,0-25.89,0-38.83,0-5.7,0-6.18.47-6.14,6.28.12,15.53-1.91,13.28,13.21,13.39,17.21.12,34.42.24,51.62,0,14.66-.23,28.44,1.49,38.63,14.22.87-2.07.53-3.63.53-5.12q0-110.35,0-220.7c0-2.81-.48-5.72,1.11-8.34,1.68-1,3.45-.62,5.21-.31,2,2.65,1.32,5.76,1.32,8.69q0,113.08,0,226.08c8-9.85,18.75-14,31.15-14.36,7.26-.21,14.52,0,21.78-.07,5.17-.06,5.66-.55,5.71-5.75.08-8.84,0-17.68.05-26.52.07-6.46,1.46-7.65,8-7.44a22.15,22.15,0,0,1,11.15,3.57c3.17,2,3.63.66,3.62-2.3-.06-14.36,0-28.73,0-43.09,0-4.07.74-7.83,3.36-11.08,3.83-4.75,10.31-6.85,15.7-5,6.23,2.1,10.12,6.9,10.3,13.3.26,9.78,0,19.57.1,29.36,0,5.5.09,5.68,5.46,4.94,4.73-.66,8.49,2.55,12.68,2.89s7.89-3.65,12.63-2.93c5.22.79,9.34,3.2,11.61,7.92,1.38,2.87,2.73,3.9,6.11,3.3,9.43-1.66,17.07,4.69,17.68,14.46.4,6.3,0,12.63.15,18.94.1,4.86.62,5.45,5.54,5.44,14.06,0,12.33,1.46,12.34-11.88q.07-114.13,0-228.26c0-8.87,0-8.88-8.79-8.88H265.88c-17.39,0-26.92,7.18-31.77,23.89a10.51,10.51,0,0,1-1.62,3.9c-1.61,1-3.34.51-5,.41-2-1.25-2.1-3.38-2.53-5.37a29.17,29.17,0,0,0-27.76-22.87c-16.24-.17-32.48,0-48.72-.08-2.43,0-5.14.6-7-1.82-1.08-3.58.35-4.78,3.94-4.76C162.49,111.33,179.58,111.39,196.67,111.25Z" transform="translate(-7.5 -16.03)"/><path class="cls-3" d="M7.58,406.36l99.91.32c7.19,0,7.2,0,7.18,7.28,0,4.42-.09,8.83-.13,13.25-26.47,0-52.93-.07-79.4,0a9.28,9.28,0,0,1-7.46-3.06c-4.64-4.93-9.59-9.57-14.3-14.44C11.73,408,10,407,7.58,407.3Z" transform="translate(-7.5 -16.03)"/><path class="cls-3" d="M411,439.61l-.47,0c-10.41-.15-10.06-.15-10-10.77,0-8.14,5.3-14,7.91-21,.68-1.82,2.76-1.14,4.26-1.15,11.2,0,22.4-.21,33.59.07,4.26.11,5.51-1,5.5-5.42q-.21-131.31-.1-262.62c0-1.73.1-3.46.16-5.19,6.08,6,12.11,12,18.25,17.84,1.9,1.82,1.56,4,1.56,6.16q0,79.5,0,159c0,35-.09,70,.11,105.05,0,4.65-1.36,5.74-5.83,5.69-19.87-.24-39.75,0-59.62-.2-4.24,0-5.11,1.58-4.78,5.25.28,3.14-1,7,4.62,6.33C407.78,438.46,409.71,437.92,411,439.61Z" transform="translate(-7.5 -16.03)"/><path class="cls-4" d="M92.82,116.49c.81-3.79-.44-5.15-4.57-5.12-20.86.12-41.72-.08-62.56-.17l62.47-.07c5.06,0,5.31-.35,3.53-4.93-1.57-4.06-4.43-7.18-7.42-10.26a46.08,46.08,0,0,1-9.41-50.72c7.68-17.38,25.3-29.09,43.88-28.05,19.62,1.1,34.18,10.69,41.6,29.13s3.4,35.2-9.9,49.75c-3,3.3-5.71,6.66-7.39,10.84-1.31,3.26-.68,4.35,3,4.31,15.77-.17,31.54-.07,47.32-.07,1.09,0,2.19.08,3.27.12-16.68.07-33.34.28-50,.12-4.12,0-5.42,1.29-4.6,5.12,1.68,2.51,2,5-.27,7.33-13.35.54-13.05.53-13.46-12.43a46.9,46.9,0,0,1,4.71-22.77c3.87-7.91,7-16.19,10.54-24.26a15.38,15.38,0,0,0,1.28-6.87c-.06-2-1.29-2.27-2.84-2.24-1.23,0-2.78-.24-2.75,1.66.1,6-3.61,10.63-5.45,15.92a36.14,36.14,0,0,1-2.38,5.66c-7.05,12.74-10.29,26.29-8.51,40.83.61,5-2.44,4.65-5.76,4.67s-6,.3-5.39-4.44c1.87-14.89-2-28.51-8.64-41.79-3.24-6.52-7.22-13-7.67-20.63-.12-2.11-1.77-1.81-3.16-1.89s-2.36.42-2.38,2.12a15.94,15.94,0,0,0,1.11,6.91c3.06,6.91,5.39,14.22,9.13,20.74,6.48,11.31,6.44,23.41,6.14,35.73-.06,2.46-.84,3.38-3.3,3.24-3.3-.18-6.62-.12-9.93-.16C90.81,121.46,91.15,119,92.82,116.49Z" transform="translate(-7.5 -16.03)"/><path class="cls-3" d="M150.63,427.2c0-5.84,0-11.67-.16-17.51-.05-2.22.68-3.06,3-3q25.8.1,51.6,0c1.78,0,2.88,1,4.11,2,12.28,10.18,27.88,10.32,40.28.22a8.67,8.67,0,0,1,5.94-2.22q17.28.14,34.56,0a5.8,5.8,0,0,1,5.68,3c3.48,5.29,9,8.76,13.21,13.45,1.1,1.23,3,2,2.83,4.09Z" transform="translate(-7.5 -16.03)"/><path class="cls-1" d="M232,145.86c2.39-16.16,10.57-25.65,25-28.79a28.85,28.85,0,0,1,6.1-.53c54.14,0,108.28,0,162.43-.12,3.93,0,4.56,1.25,4.56,4.78q-.14,121.23,0,242.46c0,3.77-.66,5.43-4.8,5a61.81,61.81,0,0,0-11.82,0c-3.78.36-4.43-1.16-4.29-4.52.26-6.46.08-12.94.07-19.41,0-12.88-9.56-18.91-21.58-13.43-.37-1.21-.72-2.4-1.09-3.59a13.32,13.32,0,0,0-20.94-6.91c-2.17,1.68-3.26,2.34-5.68.21a11.79,11.79,0,0,0-13.26-1.84c-3.4,1.57-3.53.22-3.51-2.59.08-11.21.14-22.42-.06-33.62a13.23,13.23,0,0,0-11.51-13c-6.23-.95-12.52,3.12-14.73,9.36a16.26,16.26,0,0,0-.54,5.6q0,25.09,0,50.13c-1.57.72-2-.66-2.83-1.25a26.78,26.78,0,0,0-8.74-4.46c-9.87-2.77-11.31-1.74-11.24,8.31.06,9-.06,18,.15,27,.07,3.07-.78,4-3.92,4-10.09-.09-20.21-.16-30.28.38-10.48.56-18.81,5.64-25.28,13.84-.45.57-.94,1.1-2,2.35v-5.92q0-113.41,0-226.83c0-1.89-.1-3.78-.16-5.67q-.41-.33-.27-.65T232,145.86Z" transform="translate(-7.5 -16.03)"/><path class="cls-1" d="M141.82,123.82l.27-7.33,51.9,0c18.3,0,29.38,9.15,32.8,27.06.15.77.35,1.53.53,2.29q.53.29.37.62c-.11.22-.22.33-.33.33-.06,1.89-.17,3.78-.17,5.67q0,113.65,0,227.3c0,1.52,0,3,0,5.43-1.79-2-3-3.39-4.2-4.74-7.69-8.55-17.54-11.87-28.75-11.87-23,0-46.09-.11-69.14.1-3.94,0-5.21-.91-4.89-4.89a107.9,107.9,0,0,0,0-14.2c-.16-3,.7-4,3.86-4,15.62.17,31.25,0,46.88.12,2.45,0,3.92-.31,3.54-3.27s-2.52-1.87-4-1.88c-15.47-.07-30.94,0-46.41-.07-1.71,0-3.8.77-3.93-2.46s1.08-3.6,3.83-3.58q31.49.15,63,0c1.4,0,3.5,1,4.11-1.09.73-2.46.12-4-3.19-3.93-13.89.19-27.78.08-41.67.08-7.26,0-14.52,0-21.78,0-2.08,0-4.39.79-4.3-3,.09-3.63,2.39-2.6,4.17-2.61,20.84,0,41.67,0,62.51-.07,1.86,0,4.6,1.24,4.48-2.75s-2.88-2.61-4.72-2.62c-20.68-.08-41.36,0-62-.07-2,0-4.43,1-4.41-2.9s2.51-2.85,4.47-2.86c20.84,0,41.67,0,62.51-.06,1.79,0,4.3,1,4.17-2.63-.12-3.36-2.45-2.26-4-2.26-20.84-.06-41.68-.27-62.5.11-5.7.1-4.31-3.15-4.52-6.22-.23-3.27-.21-5.41,4.41-5.31,15.3.34,30.62.15,45.93.09,1.6,0,3.89,1.07,4-2.31s-1.84-3-4-3q-23.2,0-46.41,0c-2,0-4,.53-4-2.87,0-3.24,1.73-3,3.89-3q31.49,0,63,0c1.73,0,4.34,1.16,4.26-2.52s-2.76-2.32-4.41-2.33c-20.84-.09-41.67-.06-62.51-.06-2.14,0-4.35.62-4.23-3.1s2.49-2.55,4.23-2.55c20.84-.06,41.67,0,62.51-.06,2,0,4.55,1,4.43-2.88-.11-3.61-2.53-2.55-4.31-2.55-20.84-.05-41.67,0-62.51,0-2,0-4.42.89-4.35-2.94s2.66-2.74,4.55-2.75c20.84-.06,41.67,0,62.51-.09,1.56,0,3.94,1.19,4.09-2.2.16-3.62-2.33-2.65-4.14-2.65-20.68,0-41.36-.13-62,.07-3.87,0-5.18-.81-5-4.86.35-6.48.08-6.49,6.47-6.49,14.68,0,29.36,0,44,0,1.68,0,3.84.88,3.88-2.43s-1.81-3-4-3q-23.2,0-46.41,0c-2,0-4,.61-4-2.83,0-3.29,1.79-3,3.91-3,20.84,0,41.67.05,62.51-.05,1.74,0,4.81,1.59,4.69-2.5s-3.18-2.27-4.88-2.28c-20.68-.13-41.35-.09-62-.08-2.2,0-4.31.5-4.19-3.15s2.49-2.55,4.24-2.56c20.84-.06,41.67,0,62.51-.05,2,0,4.53.91,4.42-2.93-.11-3.67-2.59-2.49-4.32-2.5-20.52-.06-41,0-61.56-.12-2,0-5.38,1.88-5.24-2.88s3.59-2.62,5.48-2.64c20.52-.16,41-.08,61.56-.15,1.56,0,3.93,1.16,4.06-2.22.14-3.63-2.35-2.64-4.16-2.65-20.36,0-40.72,0-61.09-.08-1.88,0-4.85,1.23-5.47-1a22.76,22.76,0,0,1-.07-9.38c.24-1.5,2.5-.73,3.83-.74,15.31-.05,30.62,0,45.93-.07,1.72,0,4.2,1.19,4.28-2.49s-2.3-3-4.39-3c-15.15,0-30.31,0-45.46,0-1.86,0-4.49,1.25-4.54-2.73-.05-3.82,2.32-3,4.36-3,20.84,0,41.67,0,62.51-.06,1.71,0,4.35,1.22,4.27-2.49s-2.76-2.33-4.41-2.33c-20.84-.09-41.67-.06-62.51-.05-2.19,0-4.32.5-4.22-3.15s2.4-2.63,4.2-2.63c20.84,0,41.67,0,62.51-.08,1.48,0,3.79,1.16,4.31-1.46.46-2.33.31-4.09-3.18-4-11.83.23-23.68.09-35.51.09-9.63,0-19.26,0-28.89,0-2.17,0-3.43-.12-3.43-2.93,0-3,1.63-2.77,3.6-2.77q31.73,0,63.45,0c1.55,0,3.93,1.2,4.09-2.19.16-3.56-2.23-2.72-4.1-2.73-20.36,0-40.72,0-61.09-.09-1.92,0-5.45,1.33-5.5-1.35s3.49-1.41,5.41-1.49c11-.45,17.9-7.23,18.2-18.13a29.57,29.57,0,0,0,0-4.73c-.52-3.88.88-5.55,4.91-5,1.92.25,4.24,0,4.1-2.61s-2.39-2.43-4.36-2.43C146.53,124,144.17,123.9,141.82,123.82Z" transform="translate(-7.5 -16.03)"/><path class="cls-1" d="M92.82,116.49q.13,3.67.27,7.33c-2.52.08-5,.19-7.55.23-1.81,0-3.14.61-3.11,2.66A2.29,2.29,0,0,0,85.34,129c5.28-.83,5.47,2.25,5.23,6.16-.39,6.12.38,12,5.1,16.59,4.38,4.28,9.79,5.35,15.65,5.29,1.18,0,3.33-.88,3.26,1.4s-2.14,1.37-3.39,1.38c-13.89.05-27.78,0-41.67.07-1.73,0-4.29-1.16-4.25,2.52s2.7,2.36,4.35,2.37c13.73.1,27.47.05,41.2.06,2,0,4-.59,4,2.83s-2.06,2.81-4,2.81q-26.28,0-52.56,0c-1.86,0-4.21-.87-4.12,2.7s2.34,2.72,4.25,2.72c17,0,34.1,0,51.14.08,2,0,5.39-1.75,5.25,2.94s-3.54,2.69-5.5,2.71c-17,.15-34.1.06-51.14.13-1.46,0-3.62-1-4,1.89-.38,3.31,1.73,3,3.84,3q26.52,0,53,0c1.89,0,3.67-.38,3.76,2.67s-1.53,3.11-3.78,3.1c-13.58-.06-27.15,0-40.73,0-4.26,0-8.53.09-12.78,0-2.32-.07-3.42.46-3.4,3.11,0,2.8,1.7,2.48,3.44,2.48,17.52,0,35,.1,52.56-.09,3.63,0,4.88.78,4.7,4.6-.31,6.69-.07,6.7-6.87,6.7-12.94,0-25.89,0-38.83,0-1.67,0-3.86-.88-3.89,2.42s2.12,2.47,3.82,2.47c13.89,0,27.78,0,41.67,0,1.94,0,4.06-.67,4.1,2.78s-1.89,2.91-3.94,2.91q-26.28,0-52.56,0c-1.87,0-4.2-.85-4.2,2.69s2.23,2.77,4.16,2.77c17.36,0,34.73,0,52.09,0,2,0,4.48-1,4.44,2.86s-2.57,2.82-4.52,2.82c-17,0-34.1,0-51.14.11-1.72,0-4.85-1.78-4.94,2.25-.1,4.45,3.37,2.48,5.16,2.5,17,.16,34.1.1,51.14.09,2.18,0,4.37-.56,4.31,3.1s-2.31,2.69-4.17,2.69c-17.36,0-34.73,0-52.09,0-2.11,0-4.55-.7-4.43,3s2.74,2.36,4.41,2.37c17.21.09,34.41.17,51.62,0,3.7,0,4.83.89,4.66,4.64-.3,6.7-.06,6.71-6.84,6.71-12.94,0-25.89,0-38.83,0-1.64,0-3.87-.94-3.92,2.38s2.09,2.49,3.81,2.5c13.73,0,27.47,0,41.2.05,1.91,0,4.5-1.15,4.58,2.76s-2.36,2.93-4.38,2.93c-17.36,0-34.73,0-52.09,0-1.89,0-4.19-.8-4.23,2.7s2.22,2.75,4.14,2.76c17.36,0,34.73,0,52.09,0,1.92,0,4.49-1.11,4.47,2.81s-2.57,2.81-4.51,2.82c-17.21.05-34.41,0-51.62.09-1.64,0-4.41-1.45-4.51,2.24-.11,4,2.88,2.57,4.69,2.58,17,.1,34.1,0,51.14.08,2.11,0,4.86-1.1,4.8,3.06-.06,3.93-2.69,2.74-4.58,2.75-17.36.07-34.73,0-52.09.07-1.53,0-3.57-.82-4,2-.48,3.48,1.58,3.33,4,3.33,17.21,0,34.41-.07,51.62,0,1.61,0,4.34-1.35,4.77,1.26.5,3,.81,6.34-.28,9.32-.44,1.2-2.3.58-3.51.58-13.73,0-27.47,0-41.2.07-1.69,0-4.31-1.28-4.29,2.44s2.65,2.4,4.32,2.42c13.73.09,27.47.05,41.2.05,2,0,4-.51,4.06,2.87s-1.87,2.95-3.94,2.94q-26.28,0-52.56,0c-1.5,0-3.63-1-4.1,1.81-.51,3,.79,3.68,3.64,3.66,17.52-.12,35-.08,52.56,0,1.95,0,4.48-1.05,4.41,2.86s-2.69,2.72-4.57,2.73c-17,.07-34.1,0-51.14.12-1.72,0-4.84-1.76-4.9,2.28-.07,4.4,3.35,2.51,5.17,2.53,16.57.16,33.15,0,49.72.17,2.12,0,5.79-1.94,5.66,3s-3.86,2.76-5.9,2.78c-16.89.19-33.78.09-50.67.14-1.4,0-3.38-.85-3.92,1.47-.69,3,.62,3.73,3.53,3.71,17.36-.13,34.73.07,52.09-.16,3.92-.05,5.22.88,4.91,4.88a149.44,149.44,0,0,0-.05,15.15c.06,2.24-.65,3-2.93,3q-39.78-.1-79.56,0c-2.23,0-3.24-.62-2.94-2.92a18.47,18.47,0,0,0,0-2.37q0-120.76-.09-241.51c0-4.18.86-5.5,5.3-5.44C54,116.66,73.41,116.5,92.82,116.49Z" transform="translate(-7.5 -16.03)"/><path class="cls-1" d="M321.26,326.44q0-20.6,0-41.2c0-4.31,1.43-7.86,5.65-9.45,5.85-2.2,11.18,2,11.2,8.84.06,18.31,0,36.62,0,54.93,0,4.1,0,8.21,0,12.31,0,1.66.28,2.63,2.29,2.63s2.85-.5,2.82-2.64c-.09-6.47-.24-13,0-19.41.31-7.13,6.15-11.1,11.9-8.32a8.1,8.1,0,0,1,4.8,8c-.07,6.47,0,12.94,0,19.42,0,1.71,0,3,2.39,3,2.25,0,3-.78,3-3q-.17-9,0-18c.1-6.42,3.55-10.49,8.54-10.3s7.91,4,7.94,10.31c0,5.68,0,11.37,0,17,0,2-.5,4.05,2.89,4,3.54-.06,2.59-2.36,2.65-4.21.09-2.84-.08-5.69.1-8.52a8.15,8.15,0,0,1,16.11-.87,17.9,17.9,0,0,1,.3,3.29q0,28.18,0,56.35c0,4-.66,7.89-3.24,11.12-5.38,6.74-5.12,14.69-4.69,22.56.22,4.07-.76,5.34-5.12,5.29-22.89-.25-45.78-.19-68.67,0-3.51,0-5.55-.63-4.76-4.57,1.67-8.39-1.7-14.67-8.41-19.26-8.76-6-10.91-14.13-10.5-24.45.71-17.8.17-35.67-.11-53.5-.06-4,1.13-4.43,4.6-3.46a17.64,17.64,0,0,1,13.33,16.85c.08,5.68,0,11.37,0,17,0,1.59-.24,3.07,2.27,3.13s2.73-1.23,2.72-3.2C321.24,354.23,321.26,340.34,321.26,326.44Z" transform="translate(-7.5 -16.03)"/><path class="cls-5" d="M26.64,390.14c-2.63-.11-3,1.45-2.88,3.64.17,2.37,1.84,2.12,3.38,2.13,4.53,0,9.05.07,13.58.11,1.28,1.65,1.43,3.29-.05,4.91-5.91.47-11.83.08-17.74.21-3.19-.25-6.44.54-9.59-.47,0-13.1-.11-26.19-.11-39.29q0-110.07,0-220.13c0-5,4.89-7.89,9.36-5.5a2.35,2.35,0,0,1,1.15,2.37c0,1.42,0,2.84,0,4.26q0,113.14.06,226.29c0,2.13-1.52,5.48,2.83,5.6a3.39,3.39,0,0,1-.06,4.58c-1.83,0-2.83.62-2.86,2.71s.76,3.2,2.92,3.15A4.14,4.14,0,0,1,26.64,390.14Z" transform="translate(-7.5 -16.03)"/><path class="cls-6" d="M442.29,401.43h-5.61c-3.21-4.26-1.28-9.21-1.48-13.76-.27-6.09,0-12.26,0-18.38q.17-113.64.1-227.28c0-1.86-.47-3.79.45-5.58h0c2.08-.63,4.15-1,6.15.29,1.25,2,1,4.25,1,6.44Q443,270,443,396.81C443,398.38,443.11,400,442.29,401.43Z" transform="translate(-7.5 -16.03)"/><path class="cls-7" d="M442.29,401.43c-1.29-2-.87-4.28-.87-6.46q0-129.28,0-258.56a5.12,5.12,0,0,1,4.58,0c.05,1.57.15,3.15.15,4.72q0,127.48,0,255C446.1,398.6,447.38,402.38,442.29,401.43Z" transform="translate(-7.5 -16.03)"/><path class="cls-1" d="M144.78,427.23c0,10.38.21,20.75.1,31.13C144.81,465,139.36,470,132.6,470s-12.21-5-12.26-11.63c-.09-10.38.06-20.75.11-31.13a5.25,5.25,0,0,1,3.89-1.44q8.28-.25,16.56,0A5.25,5.25,0,0,1,144.78,427.23Z" transform="translate(-7.5 -16.03)"/><path class="cls-1" d="M117.66,129.12c6,0,12,0,18,0,1.29,0,3.41-.6,3.44,1.39.09,5.72,1.47,11.77-2.87,16.72a11.57,11.57,0,0,1-9.06,4.3c-6.46,0-12.92.07-19.38,0a12.33,12.33,0,0,1-12-10.58c-1.63-11.15-1-11.83,10.09-11.83Z" transform="translate(-7.5 -16.03)"/><path class="cls-8" d="M161.86,374.15c11.83,0,23.66,0,35.49,0a29.77,29.77,0,0,1,29.33,27.13c.16,2,.46,4.06.45,6.09,0,1.2.79,3.37-1.52,3.13-1.72-.18-4.3.28-4.36-3a42.1,42.1,0,0,0-1-9.83A24,24,0,0,0,197,379.8c-24.13-.08-48.26-.07-72.4-.16-1.4,0-3.54.94-4.09-1.13-.61-2.27-.94-4.52,3-4.44C136.31,374.3,149.09,374.15,161.86,374.15Z" transform="translate(-7.5 -16.03)"/><path class="cls-8" d="M215.4,406.55c-2.53-1.6-4.71-3.22-5.62-6.09-2.36-7.43-7.86-10.19-15.18-10.2q-35.24,0-70.48,0c-1.62,0-4,1-3.9-2.36,0-2.3.43-3.32,3.08-3.3,24.44.14,48.88-.1,73.32.28C208.82,385,217.2,395,215.4,406.55Z" transform="translate(-7.5 -16.03)"/><path class="cls-3" d="M144.78,427.23H120.44c0-5.67,0-11.35-.19-17-.09-2.57.55-3.68,3.37-3.59q9,.29,18,0c2.83-.09,3.46,1,3.37,3.59C144.78,415.88,144.83,421.56,144.78,427.23Z" transform="translate(-7.5 -16.03)"/><path class="cls-1" d="M26.64,390.14q0-2.72,0-5.43,42.56,0,85.12-.12c2.19,0,3,.56,3.06,2.89s-.95,2.82-3.06,2.82Q69.2,390.15,26.64,390.14Z" transform="translate(-7.5 -16.03)"/><path class="cls-8" d="M26.58,378.84q0-2.29.06-4.58,42.54-.06,85.07-.15c2,0,3.25.23,3.11,2.74-.11,2-.63,2.81-2.72,2.79C83.58,379.38,55.08,379.76,26.58,378.84Z" transform="translate(-7.5 -16.03)"/><path class="cls-8" d="M275,374.15c5.05,0,10.1,0,15.15,0,1.64,0,3.47-.54,3.47,2.37,0,2.57-1.32,2.73-3.24,2.76-8.68.12-17.38.81-26,.35-13.31-.71-26.7,9.17-26.59,26.16a23.1,23.1,0,0,1,0,2.37c-.26,2.65-2.56,1.89-4,2.24-2.26.52-1.53-1.41-1.59-2.45-1.23-19.4,12.22-33.8,31.54-33.81Z" transform="translate(-7.5 -16.03)"/><path class="cls-9" d="M435.73,136.42c0,77.5-.15,155,.16,232.49,0,10.82-.77,21.72.78,32.52q-12.18.08-24.37.15c-1.06,0-2.23.22-3-.9,1.6-1.51,3.61-1.32,5.56-1.34,2.63-.08,5.26-.07,7.88,0,2.71-.07,5.46.33,8.16-.56-2.45-.91-5-.5-7.52-.62a8.85,8.85,0,0,1-4.39-.76,1,1,0,0,1-.38-1.33c4.35,0,8.69-.1,13-.11,1.69,0,3.07-.17,3.14-2.4.06-2-.28-3.42-2.7-3.25-1.82-1.7-1.68-3.54-.4-5.46,1.48.25,3,.88,3.12-1.72.07-2.22-.51-3.54-3-3.41a4.05,4.05,0,0,1,0-5.51c1.79,0,3.09-.51,2.93-2.7-.09-1.26,0-2.52,0-3.79q0-112.71,0-225.42C434.89,140.34,434.11,138.18,435.73,136.42Z" transform="translate(-7.5 -16.03)"/><path class="cls-8" d="M243.47,406.55c-.2-13.12,7.43-21.42,19.65-21.78,9.12-.27,18.25-.11,27.37-.22,2,0,3.17.12,3.2,2.68s-1,3.09-3.3,3.06c-8.49-.1-17,0-25.48-.05-7.3,0-12.83,2.6-15.43,9.85C248.48,402.91,246.32,404.58,243.47,406.55Z" transform="translate(-7.5 -16.03)"/><path class="cls-10" d="M40.72,400.64q0-2.32,0-4.63H80.51c1.5,2.7,1.74,5.06-2.26,5.09-12.23.09-24.46.11-36.69,0C41.27,401.06,41,400.79,40.72,400.64Z" transform="translate(-7.5 -16.03)"/><path class="cls-11" d="M155.34,396h34.09c1.46,4.39,1.06,5.13-3.2,5.12-10.21,0-20.42.18-30.64-.1C153.84,399.42,154.07,397.73,155.34,396Z" transform="translate(-7.5 -16.03)"/><path class="cls-12" d="M431.75,384.85l.4,5.46c-6.83,1.19-13.73.2-20.58.55-2.32.12-2.36-1.27-2.43-3-.09-2.12.48-3.13,2.85-3.08C418.57,384.91,425.16,384.84,431.75,384.85Z" transform="translate(-7.5 -16.03)"/><path class="cls-13" d="M40.72,400.64c11.72,0,23.43-.13,35.14.11,3.75.08,5.22-1.09,4.64-4.75H93.78c1.69,2.74,4.25,3.22,7.29,3.37,4.47.21,9.16-1.33,13.4,1.31-.62.94-1.59.88-2.53.88l-89.2-.14q-.46-.25-.3-.49c.1-.16.2-.24.31-.24Z" transform="translate(-7.5 -16.03)"/><path class="cls-14" d="M155.35,400.65c9.82,0,19.65-.16,29.47.1,3.77.1,5.18-1.14,4.62-4.77,3.59.13,7.25-.78,10.73.65,1.61.66,3.51,1.63,3.22,3.59-.34,2.24-2.55,1.3-3.94,1.3q-37.54.09-75.09,0c-1.34,0-2.88.53-3.93-.9,2.08-1.89,4.67-1.43,7.11-1.45,4.51,0,9-.15,13.52.07C145.84,399.6,150.8,398,155.35,400.65Z" transform="translate(-7.5 -16.03)"/><path class="cls-8" d="M431.93,374.21q0,2.76,0,5.51c-6.6,0-13.2,0-19.79.12-2.23,0-3-.62-3-2.91s.87-2.87,3-2.83C418.73,374.24,425.33,374.19,431.93,374.21Z" transform="translate(-7.5 -16.03)"/><path class="cls-15" d="M141.13,400.65h-20.7c-.75-3.61.48-5.05,4.36-4.82,5.43.33,10.89.13,16.34.15A3.35,3.35,0,0,1,141.13,400.65Z" transform="translate(-7.5 -16.03)"/><path class="cls-16" d="M114.46,400.67c-5.34,0-10.69-.23-16,.08-3.77.22-5.25-1.07-4.68-4.76,5.46,0,10.92.17,16.36-.15C114,395.62,115.29,397,114.46,400.67Z" transform="translate(-7.5 -16.03)"/><path class="cls-17" d="M285.11,396c1.72,0,3.45,0,5.17-.08,1.92-.07,3.45.16,3.32,2.7-.11,2.26-1.38,2.94-3.38,2.94H264.35c-1.25,0-2.5-.09-3.76-.14,1.73-3.44,4.93-1.61,7.48-2.1,2.95-.07,5.9-.08,8.84,0C280.16,399.5,283.47,399.79,285.11,396Z" transform="translate(-7.5 -16.03)"/><path class="cls-18" d="M141.13,400.65q0-2.33,0-4.66h14.22q0,2.33,0,4.67Z" transform="translate(-7.5 -16.03)"/><path class="cls-19" d="M268.07,400.66c-2.48.38-5.12-.76-7.48.76-1.79-.32-4.74,1.5-5.09-1.13-.27-2,2.46-3.63,4.63-4a55.21,55.21,0,0,1,7.93-.3A3.38,3.38,0,0,1,268.07,400.66Z" transform="translate(-7.5 -16.03)"/><path class="cls-20" d="M268.07,400.66V396h9.47a3.34,3.34,0,0,1,0,4.65Z" transform="translate(-7.5 -16.03)"/><path class="cls-21" d="M277.53,400.65q0-2.32,0-4.65h7.58C285.94,403,280.64,400,277.53,400.65Z" transform="translate(-7.5 -16.03)"/><path class="cls-22" d="M414.89,400.66h-5.55c-.75-3.53.4-5.27,4.26-4.74a45.29,45.29,0,0,0,5.06.14q0,.41,0,.81A20.41,20.41,0,0,0,414.89,400.66Z" transform="translate(-7.5 -16.03)"/><path class="cls-9" d="M446,136.39l-4.58,0h-5.66A12.7,12.7,0,0,1,446,136.39Z" transform="translate(-7.5 -16.03)"/><path class="cls-23" d="M22.74,400.68c0,.25,0,.49,0,.74-3.14-.12-6.39,1.11-9.4-.75Z" transform="translate(-7.5 -16.03)"/><path class="cls-24" d="M227.36,146.82l0-.95,4.65,0v1Z" transform="translate(-7.5 -16.03)"/><path class="cls-25" d="M145.1,38.61a2.22,2.22,0,0,1-1.5,2.18c-1.76.59-3-.33-4.2-1.43a31.55,31.55,0,0,0-21-8.42,32.27,32.27,0,0,0-17.21,4.11c-1.83,1-4,2.23-5.28-.32s1-3.57,2.74-4.61c13.63-8,32.87-5.82,44.4,5C144.12,36.07,145.19,37,145.1,38.61Z" transform="translate(-7.5 -16.03)"/><path class="cls-26" d="M117.06,60.81c-2.27.32-2.43-1.06-2.52-2.84-.12-2.39,1-2.9,3.11-2.82s2.55,1.1,2.62,3C120.38,60.62,119.05,61,117.06,60.81Z" transform="translate(-7.5 -16.03)"/><path class="cls-27" d="M109.09,58c.2,1.83-.33,2.92-2.49,2.89-2,0-3.27-.31-3.22-2.76,0-2.24,1-3,3.11-3S109.3,56,109.09,58Z" transform="translate(-7.5 -16.03)"/><path class="cls-28" d="M130.95,58c.22,1.9-.49,2.83-2.58,2.84s-2.75-.8-2.74-2.78.56-2.91,2.65-2.91S131.17,56,130.95,58Z" transform="translate(-7.5 -16.03)"/><path class="cls-28" d="M93.07,40.38c-.35,1.93-1.26,3.17-3.09,3a2.57,2.57,0,0,1-2.56-3.15,2.92,2.92,0,0,1,3.34-2.53C92.52,37.86,93,39,93.07,40.38Z" transform="translate(-7.5 -16.03)"/><path class="cls-3" d="M237.76,371.23c0-2,0-3.05,0-4.15q0-109.62,0-219.24c0-14.81,11.07-25.62,25.69-25.75,4,0,4.66,1.41,4.65,4.94-.11,34.57-.06,69.13-.06,103.7,0,42.3-.06,84.6.1,126.9,0,4.22-1.15,5.31-5.3,5.29C254,362.87,245.91,365.84,237.76,371.23Z" transform="translate(-7.5 -16.03)"/><path class="cls-29" d="M339.08,170.49c21.44,0,42.88,0,64.32,0,1.71,0,4.23-1.19,4.28,2.48s-2.44,2.94-4.49,2.94q-64.08,0-128.16,0c-1.83,0-4.13.91-4.23-2.63-.11-4,2.55-2.78,4.43-2.78Q307.16,170.44,339.08,170.49Z" transform="translate(-7.5 -16.03)"/><path class="cls-29" d="M339.17,225.31H274.86c-1.95,0-4.24.66-4-2.8.12-2,.57-2.8,2.68-2.73,4.09.13,8.2,0,12.29,0q58.64,0,117.29.07c1.53,0,4-1.39,4.51,1.74.61,3.49-1.34,3.75-4.1,3.74-19.55-.08-39.1,0-58.64,0Z" transform="translate(-7.5 -16.03)"/><path class="cls-30" d="M330.57,198H274.71c-2,0-4,.55-3.92-2.88.1-3.05,1.83-2.68,3.73-2.68q56.57,0,113.15,0c1.94,0,3.61-.27,3.69,2.73.1,3.46-2,2.83-4,2.83Z" transform="translate(-7.5 -16.03)"/><path class="cls-29" d="M330.82,247.23c-18.45,0-36.9,0-55.34-.07-1.72,0-4.59,1.61-4.67-2.5-.07-3.87,2.48-2.88,4.45-2.88q55.82,0,111.63,0c1.53,0,3.94-1.33,4.39,1.91s-1,3.58-3.7,3.56c-14.19-.13-28.38-.06-42.57-.06Z" transform="translate(-7.5 -16.03)"/><path class="cls-2" d="M339.18,186.68c-21.44,0-42.87,0-64.31,0-1.55,0-3.9,1.17-4-2.22-.14-3.63,2.32-2.64,4.12-2.64q64.31,0,128.62,0c1.58,0,3.94-1.09,4.07,2.23.14,3.6-2.35,2.62-4.15,2.63Q371.33,186.71,339.18,186.68Z" transform="translate(-7.5 -16.03)"/><path class="cls-2" d="M339.59,236c-21.59,0-43.19,0-64.78-.06-1.39,0-3.63,1.22-3.94-1.79-.27-2.58.8-3.14,3.19-3.12,12,.1,24,0,35.94,0q46.58,0,93.15.07c1.5,0,4-1.42,4.44,1.77S406.15,236,403.9,236Q371.75,235.93,339.59,236Z" transform="translate(-7.5 -16.03)"/><path class="cls-2" d="M344.8,263.4c-19.56,0-39.12,0-58.68,0-1.56,0-3.93,1.15-4.06-2.21-.15-3.61,2.32-2.64,4.14-2.64q58.68,0,117.35,0c1.58,0,3.94-1.11,4.09,2.22.15,3.59-2.33,2.64-4.15,2.64Q374.15,263.44,344.8,263.4Z" transform="translate(-7.5 -16.03)"/><path class="cls-2" d="M344.8,164.85c-19.57,0-39.13,0-58.7,0-1.57,0-3.92,1.13-4-2.23-.13-3.58,2.29-2.68,4.13-2.68q58.7,0,117.4,0c1.62,0,3.92-1,4.05,2.29.14,3.6-2.34,2.63-4.15,2.63Q374.15,164.88,344.8,164.85Z" transform="translate(-7.5 -16.03)"/><path class="cls-2" d="M345.24,209.18q29.11,0,58.21,0c1.8,0,4.3-1,4.19,2.62-.1,3.34-2.45,2.25-4,2.26q-58.68.08-117.37,0c-1.77,0-4.32,1.06-4.16-2.59s2.85-2.25,4.48-2.26C306.12,209.15,325.68,209.18,345.24,209.18Z" transform="translate(-7.5 -16.03)"/><path class="cls-31" d="M378.88,274.64H354.33c-2,0-4,.57-4-2.84s2.36-2.64,4.19-2.64q24.31-.06,48.63,0c2,0,4.58-1,4.49,2.87s-2.89,2.53-4.71,2.56C394.93,274.72,386.91,274.64,378.88,274.64Z" transform="translate(-7.5 -16.03)"/><path class="cls-2" d="M378.9,313c-8.66,0-17.33,0-26,0-2,0-3.67.14-3.61-2.82s1.86-2.34,3.5-2.35q26,0,52,0c1.94,0,3.69-.3,3.59,2.74-.09,2.81-1.78,2.43-3.48,2.43Z" transform="translate(-7.5 -16.03)"/><path class="cls-2" d="M379.41,280.32c8.34,0,16.68,0,25,0,1.91,0,3.31,0,3.23,2.65-.07,2.42-1.46,2.32-3.1,2.32q-25.49,0-51,0c-1.95,0-3.23-.07-3.19-2.68,0-3,2-2.27,3.53-2.27C362.41,280.31,370.91,280.32,379.41,280.32Z" transform="translate(-7.5 -16.03)"/><path class="cls-32" d="M371.26,291.12c5.68,0,11.37.08,17,0,2.24,0,3,.67,3,3s-1.09,2.48-2.9,2.48c-11.68,0-23.36-.07-35,0-2.15,0-3-.44-3-2.83,0-2.68,1.52-2.61,3.37-2.59C359.58,291.14,365.42,291.12,371.26,291.12Z" transform="translate(-7.5 -16.03)"/><path class="cls-31" d="M290.25,324c-5.51,0-11,0-16.54,0-1.79,0-3-.13-2.89-2.47.07-2.11.47-3.11,2.88-3.08,10.71.11,21.42.08,32.13,0,2.09,0,3.12.41,3.16,2.83s-1.17,2.74-3.15,2.71C300.64,323.9,295.44,324,290.25,324Z" transform="translate(-7.5 -16.03)"/><path class="cls-32" d="M289.47,296.49c-5.19,0-10.37-.06-15.56,0-2,0-3.15-.2-3.12-2.72s1.27-2.72,3.23-2.71c10.53,0,21.06.07,31.58,0,2.3,0,3.39.47,3.38,3.09,0,2.93-1.9,2.3-3.49,2.31C300.16,296.51,294.81,296.49,289.47,296.49Z" transform="translate(-7.5 -16.03)"/><path class="cls-33" d="M289.57,274.64c-5.2,0-10.4-.06-15.6,0-2,0-3.19-.22-3.16-2.73s1-2.86,3.09-2.85c10.71.08,21.43.1,32.14,0,2.35,0,2.93.84,2.94,3s-1,2.59-2.87,2.56C300.6,274.59,295.08,274.64,289.57,274.64Z" transform="translate(-7.5 -16.03)"/><path class="cls-2" d="M289.85,285.26c-5.35,0-10.71,0-16.06,0-1.74,0-3-.06-3-2.42s.9-2.58,2.81-2.57q16.29.1,32.59,0c2,0,2.73.55,2.74,2.65,0,2.44-1.41,2.34-3.06,2.33C300.55,285.25,295.2,285.26,289.85,285.26Z" transform="translate(-7.5 -16.03)"/><path class="cls-2" d="M286.67,141.15c-4.41,0-8.83,0-13.24,0-1.69,0-2.59-.31-2.58-2.3s.46-2.83,2.62-2.8q13.72.14,27.43,0c2.13,0,2.63.92,2.64,2.85s-1.09,2.25-2.69,2.24C296.13,141.12,291.4,141.15,286.67,141.15Z" transform="translate(-7.5 -16.03)"/><path class="cls-2" d="M295.53,312.69c-3.6,0-7.21-.09-10.81,0-2.08.07-2.67-.73-2.65-2.73s1-2.29,2.61-2.28c7.21,0,14.42.08,21.62,0,2.09,0,2.66.74,2.65,2.73s-1,2.31-2.61,2.28C302.74,312.65,299.14,312.69,295.53,312.69Z" transform="translate(-7.5 -16.03)"/><path class="cls-2" d="M279.17,329.6c1.72,0,3.45.1,5.17,0,2-.14,2.83.43,2.75,2.59-.07,1.81-.65,2.48-2.46,2.44-3.76-.09-7.52-.08-11.28,0-1.75,0-2.47-.5-2.51-2.38,0-2.07.65-2.8,2.69-2.65C275.4,329.71,277.29,329.6,279.17,329.6Z" transform="translate(-7.5 -16.03)"/><path class="cls-2" d="M278.69,345.74c-1.73,0-3.47-.05-5.2,0s-2.72-.15-2.64-2.23c.07-1.76.14-3,2.46-3,3.78.13,7.57.13,11.35,0,2.38-.08,2.31,1.32,2.4,3,.11,2.16-1.15,2.2-2.7,2.16C282.48,345.7,280.59,345.74,278.69,345.74Z" transform="translate(-7.5 -16.03)"/><path class="cls-2" d="M70.25,141.15c-4.25,0-8.5,0-12.76,0-1.82,0-3.42.14-3.33-2.58.08-2.28,1.25-2.5,3-2.5q13.46,0,26.93,0c1.71,0,3,.06,3,2.42.09,2.63-1.28,2.7-3.21,2.67C79.38,141.11,74.81,141.15,70.25,141.15Z" transform="translate(-7.5 -16.03)"/><path class="cls-16" d="M423.41,396.89c2.79,0,5.58,0,8.37.05a1.72,1.72,0,0,1,1.9,2.07,1.68,1.68,0,0,1-1.9,1.6c-2.79,0-5.58,0-8.37,0A2.73,2.73,0,0,1,423.41,396.89Z" transform="translate(-7.5 -16.03)"/><path class="cls-34" d="M423.41,396.89q0,1.88,0,3.76h-8.51c-.44-3,.87-4.18,3.79-3.78Z" transform="translate(-7.5 -16.03)"/></svg>